name Walk10.mot
datacolumns 19
datarows 30
range 2.30100000 2.33000000
endheader

                time	   L_ground_force_vx	   L_ground_force_vy	   L_ground_force_vz	   L_ground_force_px	   L_ground_force_py	   L_ground_force_pz	   R_ground_force_vx	   R_ground_force_vy	   R_ground_force_vz	   R_ground_force_px	   R_ground_force_py	   R_ground_force_pz	   L_ground_torque_x	   L_ground_torque_y	   L_ground_torque_z	   R_ground_torque_x	   R_ground_torque_y	   R_ground_torque_z	
          2.30100000	          0.00000000	          0.00000000	          0.00000000	          0.00000000	          0.00000000	          0.00000000	          8.40056041	         63.07956311	          4.48648104	          0.37909455	          0.00000000	          0.06340521	          0.00000000	          0.00000000	          0.00000000	          0.00000000	         -2.62114060	          0.00000000	
          2.30200000	          0.00000000	          0.00000000	          0.00000000	          0.00000000	          0.00000000	          0.00000000	          6.47134411	         59.62812289	          3.60180685	          0.38213431	          0.00000000	          0.06465058	          0.00000000	          0.00000000	          0.00000000	          0.00000000	         -2.20192031	          0.00000000	
          2.30300000	          0.00000000	          0.00000000	          0.00000000	          0.00000000	          0.00000000	          0.00000000	          4.65720932	         56.51269182	          2.74872275	          0.38528087	          0.00000000	          0.06588712	          0.00000000	          0.00000000	          0.00000000	          0.00000000	         -1.79941093	          0.00000000	
          2.30400000	          0.00000000	          0.00000000	          0.00000000	          0.00000000	          0.00000000	          0.00000000	          2.95130714	         53.59355914	          1.93097120	          0.38794815	          0.00000000	          0.06690967	          0.00000000	          0.00000000	          0.00000000	          0.00000000	         -1.41982181	          0.00000000	
          2.30500000	          0.00000000	          0.00000000	          0.00000000	          0.00000000	          0.00000000	          0.00000000	          1.33955274	         50.82456600	          1.14645736	          0.38983806	          0.00000000	          0.06789834	          0.00000000	          0.00000000	          0.00000000	          0.00000000	         -1.06918194	          0.00000000	
          2.30600000	          0.00000000	          0.00000000	          0.00000000	          0.00000000	          0.00000000	          0.00000000	         -0.18978385	         48.24738045	          0.39271294	          0.39108499	          0.00000000	          0.06910205	          0.00000000	          0.00000000	          0.00000000	          0.00000000	         -0.74484077	          0.00000000	
          2.30700000	          0.00000000	          0.00000000	          0.00000000	          0.00000000	          0.00000000	          0.00000000	         -1.64187265	         45.92017531	         -0.34123865	          0.39213293	          0.00000000	          0.07040140	          0.00000000	          0.00000000	          0.00000000	          0.00000000	         -0.43815272	          0.00000000	
          2.30800000	          0.00000000	          0.00000000	          0.00000000	          0.00000000	          0.00000000	          0.00000000	         -3.01709175	         43.84849604	         -1.07809552	          0.39354802	          0.00000000	          0.07134684	          0.00000000	          0.00000000	          0.00000000	          0.00000000	         -0.14418324	          0.00000000	
          2.30900000	          0.00000000	          0.00000000	          0.00000000	          0.00000000	          0.00000000	          0.00000000	         -4.32318522	         41.98474416	         -1.83509520	          0.39582847	          0.00000000	          0.07153092	          0.00000000	          0.00000000	          0.00000000	          0.00000000	          0.13503619	          0.00000000	
          2.31000000	          0.00000000	          0.00000000	          0.00000000	          0.00000000	          0.00000000	          0.00000000	         -5.58890230	         40.29011521	         -2.61091509	          0.39911856	          0.00000000	          0.07095048	          0.00000000	          0.00000000	          0.00000000	          0.00000000	          0.39766268	          0.00000000	
          2.31100000	          0.00000000	          0.00000000	          0.00000000	          0.00000000	          0.00000000	          0.00000000	         -6.85369694	         38.75996180	         -3.39122432	          0.40299220	          0.00000000	          0.07005687	          0.00000000	          0.00000000	          0.00000000	          0.00000000	          0.65062552	          0.00000000	
          2.31200000	          0.00000000	          0.00000000	          0.00000000	          0.00000000	          0.00000000	          0.00000000	         -8.13846669	         37.38843039	         -4.15937630	          0.40665502	          0.00000000	          0.06929227	          0.00000000	          0.00000000	          0.00000000	          0.00000000	          0.90639484	          0.00000000	
          2.31300000	          0.00000000	          0.00000000	          0.00000000	          0.00000000	          0.00000000	          0.00000000	         -9.42997386	         36.15474183	         -4.89371630	          0.40952823	          0.00000000	          0.06866482	          0.00000000	          0.00000000	          0.00000000	          0.00000000	          1.16740668	          0.00000000	
          2.31400000	          0.00000000	          0.00000000	          0.00000000	          0.00000000	          0.00000000	          0.00000000	        -10.68075054	         35.04207294	         -5.55102105	          0.41157842	          0.00000000	          0.06803095	          0.00000000	          0.00000000	          0.00000000	          0.00000000	          1.41832904	          0.00000000	
          2.31500000	          0.00000000	          0.00000000	          0.00000000	          0.00000000	          0.00000000	          0.00000000	        -11.80763451	         34.02044977	         -6.06054579	          0.41314582	          0.00000000	          0.06750558	          0.00000000	          0.00000000	          0.00000000	          0.00000000	          1.63632175	          0.00000000	
          2.31600000	          0.00000000	          0.00000000	          0.00000000	          0.00000000	          0.00000000	          0.00000000	        -12.70200727	         33.00335661	         -6.34459656	          0.41464371	          0.00000000	          0.06728653	          0.00000000	          0.00000000	          0.00000000	          0.00000000	          1.80136141	          0.00000000	
          2.31700000	          0.00000000	          0.00000000	          0.00000000	          0.00000000	          0.00000000	          0.00000000	        -13.26915478	         31.85863412	         -6.35709456	          0.41632186	          0.00000000	          0.06752610	          0.00000000	          0.00000000	          0.00000000	          0.00000000	          1.90143614	          0.00000000	
          2.31800000	          0.00000000	          0.00000000	          0.00000000	          0.00000000	          0.00000000	          0.00000000	        -13.46444605	         30.44177583	         -6.10884268	          0.41828792	          0.00000000	          0.06841373	          0.00000000	          0.00000000	          0.00000000	          0.00000000	          1.93585003	          0.00000000	
          2.31900000	          0.00000000	          0.00000000	          0.00000000	          0.00000000	          0.00000000	          0.00000000	        -13.27082913	         28.58136200	         -5.64197328	          0.42073882	          0.00000000	          0.06982976	          0.00000000	          0.00000000	          0.00000000	          0.00000000	          1.90473631	          0.00000000	
          2.32000000	          0.00000000	          0.00000000	          0.00000000	          0.00000000	          0.00000000	          0.00000000	        -12.63755539	         26.07041649	         -4.99094619	          0.42387576	          0.00000000	          0.07102122	          0.00000000	          0.00000000	          0.00000000	          0.00000000	          1.79579076	          0.00000000	
          2.32100000	          0.00000000	          0.00000000	          0.00000000	          0.00000000	          0.00000000	          0.00000000	        -11.45664306	         22.69555304	         -4.18643590	          0.42766999	          0.00000000	          0.07098879	          0.00000000	          0.00000000	          0.00000000	          0.00000000	          1.59073278	          0.00000000	
          2.32200000	          0.00000000	          0.00000000	          0.00000000	          0.00000000	          0.00000000	          0.00000000	         -9.62192752	         18.33610087	         -3.26735080	          0.43198612	          0.00000000	          0.06929332	          0.00000000	          0.00000000	          0.00000000	          0.00000000	          1.28723699	          0.00000000	
          2.32300000	          0.00000000	          0.00000000	          0.00000000	          0.00000000	          0.00000000	          0.00000000	         -7.19870356	         13.21787630	         -2.29222935	          0.43678734	          0.00000000	          0.06632055	          0.00000000	          0.00000000	          0.00000000	          0.00000000	          0.91856061	          0.00000000	
          2.32400000	          0.00000000	          0.00000000	          0.00000000	          0.00000000	          0.00000000	          0.00000000	          0.00000000	          0.00000000	          0.00000000	          0.00000000	          0.00000000	          0.00000000	          0.00000000	          0.00000000	          0.00000000	          0.00000000	          0.00000000	          0.00000000	
          2.32500000	          0.00000000	          0.00000000	          0.00000000	          0.00000000	          0.00000000	          0.00000000	          0.00000000	          0.00000000	          0.00000000	          0.00000000	          0.00000000	          0.00000000	          0.00000000	          0.00000000	          0.00000000	          0.00000000	          0.00000000	          0.00000000	
          2.32600000	          0.00000000	          0.00000000	          0.00000000	          0.00000000	          0.00000000	          0.00000000	          0.00000000	          0.00000000	          0.00000000	          0.00000000	          0.00000000	          0.00000000	          0.00000000	          0.00000000	          0.00000000	          0.00000000	          0.00000000	          0.00000000	
          2.32700000	          0.00000000	          0.00000000	          0.00000000	          0.00000000	          0.00000000	          0.00000000	          0.00000000	          0.00000000	          0.00000000	          0.00000000	          0.00000000	          0.00000000	          0.00000000	          0.00000000	          0.00000000	          0.00000000	          0.00000000	          0.00000000	
          2.32800000	          0.00000000	          0.00000000	          0.00000000	          0.00000000	          0.00000000	          0.00000000	          0.00000000	          0.00000000	          0.00000000	          0.00000000	          0.00000000	          0.00000000	          0.00000000	          0.00000000	          0.00000000	          0.00000000	          0.00000000	          0.00000000	
          2.32900000	          0.00000000	          0.00000000	          0.00000000	          0.00000000	          0.00000000	          0.00000000	          0.00000000	          0.00000000	          0.00000000	          0.00000000	          0.00000000	          0.00000000	          0.00000000	          0.00000000	          0.00000000	          0.00000000	          0.00000000	          0.00000000	
          2.33000000	          0.00000000	          0.00000000	          0.00000000	          0.00000000	          0.00000000	          0.00000000	          0.00000000	          0.00000000	          0.00000000	          0.00000000	          0.00000000	          0.00000000	          0.00000000	          0.00000000	          0.00000000	          0.00000000	          0.00000000	          0.00000000	
